<svg id="Capa_1" enable-background="new 0 0 512 512" height="512" viewBox="0 0 512 512" width="512" xmlns="http://www.w3.org/2000/svg" xmlns:xlink="http://www.w3.org/1999/xlink"><linearGradient id="SVGID_1_" gradientUnits="userSpaceOnUse" x1="143.292" x2="354.942" y1="-15.226" y2="547.243"><stop offset="0" stop-color="#ffd9d9" stop-opacity="0"/><stop offset=".9981" stop-color="#ffb3b3"/></linearGradient><g><g><path d="m20.337 133.512c-23.967 39.398-26.493 107.613-8.937 150.256 15.377 37.351 45.966 72.409 86.12 76.801 14.766 1.615 29.858-1.024 44.472 1.638 50.257 9.152 68.952 71.09 108.01 104.014 27.182 22.913 64.898 31.021 100.174 26.607s68.302-20.363 97.376-40.824c22.957-16.157 44.436-36.022 55.764-61.707 23.744-53.839-4.19-118.501-47.587-158.239-13.516-12.377-28.581-23.294-39.875-37.727s-18.48-33.695-13.099-51.214c4.293-13.977 15.849-24.812 20.227-38.763 5.958-18.984-3.035-40.281-17.802-53.616s-34.308-20.039-53.666-24.64c-81.103-19.28-258.823-11.524-331.177 107.414z" fill="url(#SVGID_1_)"/></g><g><g><path d="m428.631 70.796c-2.059-.613-4.227-.942-6.483-.942l-283.411-.011c-12.606 0-22.824 10.229-22.824 22.824v337.828h-37.143c-6.297 0-11.412 5.103-11.412 11.401v18.257c0 12.605 10.218 22.823 22.813 22.823h282.313c12.595 0 22.813-10.218 22.813-22.812v-332.112h38.263c6.297 0 11.401-5.104 11.401-11.401v-23.984c-.001-10.338-6.89-19.078-16.33-21.871z" fill="#00c" opacity=".1"/><g><g><g><g><g><g><path d="m444.96 67.155v23.985c0 6.297-5.104 11.401-11.401 11.401h-49.436v-35.386c0-12.595-10.218-22.813-22.824-22.813h60.848c2.256 0 4.424.329 6.483.942 9.441 2.793 16.33 11.533 16.33 21.871z" fill="#ffd6bb"/><path d="m418.12 44.332c-12.605 0-22.823 10.229-22.823 22.824v367.496c0 12.595-10.218 22.812-22.813 22.812h-256.571v-390.309c0-12.595 10.218-22.824 22.824-22.824h279.383z" fill="#fff3ee"/></g></g></g></g><g><path d="m369.554 457.464h-279.384c-12.595 0-22.813-10.218-22.813-22.823v-18.257c0-6.297 5.115-11.401 11.412-11.401h256.56c6.297 0 11.412 5.103 11.412 11.401v18.257c0 12.605 10.218 22.823 22.813 22.823z" fill="#ffd6bb"/><path d="m422.146 39.342h-283.419c-15.338 0-27.816 12.479-27.816 27.817v174.136c0 2.761 2.239 5 5 5s5-2.239 5-5v-174.136c0-9.824 7.993-17.817 17.816-17.817h258.036c-4.038 4.83-6.471 11.044-6.471 17.817v367.487c0 9.824-7.992 17.816-17.816 17.816h-2.957c-9.806-.021-17.778-8.004-17.778-17.815v-18.253c0-9.047-7.361-16.408-16.409-16.408h-214.421v-124.867c0-2.761-2.239-5-5-5s-5 2.239-5 5v124.867h-32.143c-9.048 0-16.409 7.361-16.409 16.408v18.253c0 15.338 12.479 27.817 27.817 27.817 0 0 279.395-.002 279.401-.002h2.899c15.338 0 27.816-12.479 27.816-27.816v-367.487c0-9.824 7.993-17.817 17.817-17.817h4.037c9.824 0 17.816 7.993 17.816 17.817v23.978c0 3.534-2.875 6.408-6.408 6.408h-4.06c-2.762 0-5 2.239-5 5s2.238 5 5 5h4.06c9.048 0 16.408-7.361 16.408-16.408v-23.978c.001-15.339-12.478-27.817-27.816-27.817zm-349.787 395.305v-18.253c0-3.534 2.875-6.408 6.409-6.408h256.564c3.534 0 6.409 2.875 6.409 6.408v18.253c0 6.772 2.432 12.986 6.469 17.815l-258.035.002c-9.823 0-17.816-7.993-17.816-17.817z" fill="#00c"/></g></g><path d="m353.637 145.731h-195.274c-5.523 0-10-4.477-10-10v-26.246c0-5.523 4.477-10 10-10h195.275c5.523 0 10 4.477 10 10v26.246c-.001 5.523-4.478 10-10.001 10z" fill="#ffab66"/></g></g><path d="m439.8 437.701c-1.031 0-2.063-.318-2.939-.955l-3.24-2.355-3.242 2.355c-1.752 1.273-4.125 1.273-5.877 0-1.753-1.273-2.486-3.53-1.816-5.59l1.237-3.811-3.241-2.355c-1.752-1.273-2.485-3.53-1.815-5.59.669-2.06 2.589-3.455 4.755-3.455h4.006l1.239-3.811c.669-2.06 2.589-3.455 4.755-3.455 2.166 0 4.086 1.395 4.755 3.455l1.238 3.81h4.007c2.166 0 4.086 1.395 4.755 3.455.67 2.06-.063 4.317-1.815 5.59l-3.242 2.355 1.237 3.811c.67 2.06-.063 4.317-1.816 5.59-.879.638-1.91.956-2.941.956z" fill="#ff4d4d"/><path d="m455.608 238.912c-1.031 0-2.063-.318-2.938-.955l-3.242-2.355-3.242 2.355c-1.752 1.273-4.124 1.273-5.878 0-1.752-1.273-2.485-3.53-1.815-5.59l1.238-3.811-3.241-2.354c-1.753-1.273-2.486-3.53-1.816-5.59.669-2.06 2.589-3.455 4.755-3.455h4.007l1.238-3.811c.669-2.06 2.589-3.455 4.755-3.455s4.086 1.395 4.755 3.455l1.238 3.811h4.007c2.166 0 4.086 1.395 4.755 3.455.67 2.06-.063 4.317-1.816 5.59l-3.241 2.354 1.238 3.811c.67 2.06-.063 4.317-1.815 5.59-.879.636-1.91.955-2.942.955z" fill="#ff9d33"/><path d="m79.677 87.954c-1.031 0-2.063-.318-2.939-.955-1.752-1.273-2.486-3.53-1.816-5.59l1.238-3.811-3.241-2.355c-1.752-1.273-2.486-3.53-1.816-5.59s2.589-3.455 4.755-3.455h4.006l1.238-3.811c.669-2.06 2.589-3.455 4.755-3.455 2.167 0 4.086 1.395 4.755 3.455l1.238 3.81h4.007c2.166 0 4.086 1.395 4.755 3.455s-.064 4.317-1.816 5.59l-3.242 2.354 1.238 3.811c.669 2.06-.064 4.317-1.816 5.59s-4.125 1.273-5.878 0l-3.241-2.355-3.242 2.355c-.875.639-1.907.957-2.938.957z" fill="#ff4d4d"/><path d="m435.12 199.424c-1.279 0-2.56-.488-3.535-1.464l-4.965-4.964-4.965 4.964c-1.951 1.952-5.119 1.952-7.07 0-1.953-1.953-1.953-5.119 0-7.071l8.5-8.5c1.951-1.952 5.119-1.952 7.07 0l8.5 8.5c1.953 1.953 1.953 5.119 0 7.071-.975.976-2.256 1.464-3.535 1.464z" fill="#ff4d4d"/><path d="m90.96 232.419c-1.28 0-2.559-.488-3.536-1.464l-4.964-4.964-4.964 4.964c-1.953 1.952-5.118 1.952-7.071 0-1.953-1.953-1.953-5.119 0-7.071l8.5-8.5c1.953-1.952 5.118-1.952 7.071 0l8.5 8.5c1.953 1.953 1.953 5.119 0 7.071-.977.976-2.256 1.464-3.536 1.464z" fill="#4d4dff"/><g><g><g><path d="m290.593 174.256h-18.583c-2.761 0-5-2.239-5-5s2.239-5 5-5h18.583c2.761 0 5 2.239 5 5s-2.239 5-5 5z" fill="#4d4dff"/></g><g><path d="m356.105 192.638h-84.095c-2.761 0-5-2.239-5-5s2.239-5 5-5h84.095c2.761 0 5 2.239 5 5s-2.239 5-5 5z" fill="#4d4dff"/></g><g><path d="m356.105 211.02h-84.095c-2.761 0-5-2.239-5-5s2.239-5 5-5h84.095c2.761 0 5 2.239 5 5s-2.239 5-5 5z" fill="#4d4dff"/></g></g><g><g><path d="m356.105 229.401h-84.095c-2.761 0-5-2.239-5-5s2.239-5 5-5h84.095c2.761 0 5 2.239 5 5s-2.239 5-5 5z" fill="#4d4dff"/></g></g></g><g><g><g><path d="m171.625 252.997h-18.583c-2.761 0-5-2.239-5-5s2.239-5 5-5h18.583c2.761 0 5 2.239 5 5s-2.239 5-5 5z" fill="#4d4dff"/></g><g><path d="m237.137 271.378h-84.095c-2.761 0-5-2.239-5-5s2.239-5 5-5h84.095c2.761 0 5 2.239 5 5s-2.239 5-5 5z" fill="#4d4dff"/></g><g><path d="m237.137 289.76h-84.095c-2.761 0-5-2.239-5-5s2.239-5 5-5h84.095c2.761 0 5 2.239 5 5s-2.239 5-5 5z" fill="#4d4dff"/></g></g><g><g><path d="m237.137 308.142h-84.095c-2.761 0-5-2.239-5-5s2.239-5 5-5h84.095c2.761 0 5 2.239 5 5s-2.239 5-5 5z" fill="#4d4dff"/></g></g></g><g><g><g><path d="m236.816 326.523h-18.583c-2.761 0-5-2.239-5-5s2.239-5 5-5h18.583c2.761 0 5 2.239 5 5s-2.239 5-5 5z" fill="#4d4dff"/></g><g><path d="m237.137 344.904h-84.095c-2.761 0-5-2.239-5-5s2.239-5 5-5h84.095c2.761 0 5 2.239 5 5s-2.239 5-5 5z" fill="#4d4dff"/></g><g><path d="m237.137 363.286h-84.095c-2.761 0-5-2.239-5-5s2.239-5 5-5h84.095c2.761 0 5 2.239 5 5s-2.239 5-5 5z" fill="#4d4dff"/></g></g><g><g><path d="m237.137 381.667h-84.095c-2.761 0-5-2.239-5-5s2.239-5 5-5h84.095c2.761 0 5 2.239 5 5s-2.239 5-5 5z" fill="#4d4dff"/></g></g></g><g><path d="m236.816 228.774h-83.453c-2.761 0-5-2.239-5-5v-55.668c0-2.761 2.239-5 5-5h83.453c2.761 0 5 2.239 5 5v55.668c0 2.762-2.239 5-5 5z" fill="#ff4d4d"/><g><path d="m196.332 190.134c0-9.161-7.453-16.613-16.613-16.613s-16.613 7.453-16.613 16.613c0 4.518 1.818 8.615 4.755 11.613-2.936 2.998-4.755 7.095-4.755 11.613 0 2.761 2.238 5 5 5s5-2.239 5-5c0-3.646 2.967-6.613 6.613-6.613s6.613 2.967 6.613 6.613c0 2.761 2.238 5 5 5s5-2.239 5-5c0-4.518-1.818-8.615-4.755-11.613 2.936-2.998 4.755-7.095 4.755-11.613zm-16.614-6.614c3.646 0 6.613 2.967 6.613 6.613s-2.967 6.613-6.613 6.613-6.613-2.967-6.613-6.613 2.967-6.613 6.613-6.613z" fill="#fff"/><g><path d="m222.073 218.36h-8.378c-2.761 0-5-2.239-5-5s2.239-5 5-5h8.378c2.761 0 5 2.239 5 5s-2.239 5-5 5z" fill="#fff"/></g><g><path d="m222.073 202.293h-8.378c-2.761 0-5-2.239-5-5s2.239-5 5-5h8.378c2.761 0 5 2.239 5 5s-2.239 5-5 5z" fill="#fff"/></g></g></g><g><path d="m353.633 312.54h-83.453c-2.761 0-5-2.239-5-5v-55.668c0-2.761 2.239-5 5-5h83.453c2.761 0 5 2.239 5 5v55.668c0 2.762-2.238 5-5 5z" fill="#8383ff"/><path d="m353.633 384.167h-83.453c-2.761 0-5-2.239-5-5v-47.645c0-2.761 2.239-5 5-5h83.453c2.761 0 5 2.239 5 5v47.645c0 2.762-2.238 5-5 5z" fill="#ffab66"/><g><path d="m313.149 273.9c0-9.161-7.453-16.613-16.613-16.613s-16.613 7.453-16.613 16.613c0 4.518 1.818 8.615 4.755 11.613-2.936 2.998-4.755 7.095-4.755 11.613 0 2.761 2.238 5 5 5s5-2.239 5-5c0-3.646 2.967-6.613 6.613-6.613s6.613 2.967 6.613 6.613c0 2.761 2.238 5 5 5s5-2.239 5-5c0-4.518-1.818-8.615-4.755-11.613 2.937-2.998 4.755-7.095 4.755-11.613zm-16.613-6.614c3.646 0 6.613 2.967 6.613 6.613s-2.967 6.613-6.613 6.613-6.613-2.967-6.613-6.613 2.966-6.613 6.613-6.613z" fill="#fff"/><g><path d="m338.891 302.126h-8.378c-2.761 0-5-2.239-5-5s2.239-5 5-5h8.378c2.761 0 5 2.239 5 5s-2.239 5-5 5z" fill="#fff"/></g><g><path d="m338.891 286.059h-8.378c-2.761 0-5-2.239-5-5s2.239-5 5-5h8.378c2.761 0 5 2.239 5 5s-2.239 5-5 5z" fill="#fff"/></g></g></g><g><g><g><path d="m358.637 80.003c-2.762 0-5-2.239-5-5v-.115c0-2.761 2.238-5 5-5s5 2.239 5 5v.115c0 2.762-2.238 5-5 5z" fill="#4d4dff"/></g><g><path d="m342.53 80.003c-2.762 0-5-2.239-5-5v-.115c0-2.761 2.238-5 5-5s5 2.239 5 5v.115c0 2.762-2.238 5-5 5z" fill="#4d4dff"/></g><g><path d="m326.423 80.003c-2.762 0-5-2.239-5-5v-.115c0-2.761 2.238-5 5-5s5 2.239 5 5v.115c0 2.762-2.239 5-5 5z" fill="#4d4dff"/></g></g><g><path d="m223.42 79.946h-69.607c-2.761 0-5-2.239-5-5s2.239-5 5-5h69.607c2.761 0 5 2.239 5 5s-2.238 5-5 5z" fill="#4d4dff"/></g></g></g></g></svg>