<svg id="Capa_1" enable-background="new 0 0 512 512" height="512" viewBox="0 0 512 512" width="512" xmlns="http://www.w3.org/2000/svg" xmlns:xlink="http://www.w3.org/1999/xlink"><linearGradient id="SVGID_1_" gradientUnits="userSpaceOnUse" x1="497.475" x2="-33.102" y1="551.86" y2="-12.542"><stop offset="0" stop-color="#fff3ee" stop-opacity="0"/><stop offset=".2938" stop-color="#ffeade" stop-opacity=".373"/><stop offset=".7874" stop-color="#ffd6bb"/></linearGradient><g><g><path d="m217.296 19.997c43.823-77.721 62.462 94.601 156.655 117.348 127.926 30.892 176.138 68.607 75.076 122.301-150.427 79.922 87.39 183.078 16.274 245.642-45.238 39.797-121.96-110.318-213.663-111.503-180.719 26.331-355.034 68.058-151.726-148.021 33.182-42.691-22.827-69.417-27.108-119.081 4.427-49.943 101.322 22.867 144.492-106.686z" fill="url(#SVGID_1_)"/></g><g><path d="m474.087 121.778c-1.559-20.977-18.175-38.11-39.102-40.243-24.394-2.487-45.227 15.052-48.087 38.162-2.588.601-4.574 2.758-4.919 5.435-.019 0-.037-.001-.056-.001-.021 0-.042.002-.063.002-.409-3.162-3.105-5.607-6.379-5.607h-9.526c-12.181 0-22.055 9.874-22.055 22.055v19.709h-.39c-4.211 0-7.625 3.414-7.625 7.625v22.391c0 4.211 3.414 7.625 7.625 7.625 5.512 0 10.424-2.551 13.636-6.53 3.679 4.301 8.208 7.645 13.278 9.682v8.873c-22.645 2.117-40.37 21.168-40.37 44.367v15.918h-22.185v-45.887c0-23.198-17.725-42.249-40.37-44.367v-8.873c5.068-2.037 9.595-5.379 13.273-9.677 3.205 3.968 8.1 6.513 13.595 6.525 4.214.009 7.663-3.411 7.663-7.625v-22.391c0-4.211-3.414-7.625-7.625-7.625h-.39v-19.711c0-12.181-9.874-22.055-22.055-22.055h-9.527c-3.273 0-5.97 2.445-6.378 5.607-.019 0-.037-.002-.056-.002-.021 0-.042.002-.063.002-.408-3.162-3.105-5.607-6.379-5.607h-9.527c-12.181 0-22.055 9.874-22.055 22.055v19.709h-.39c-4.211 0-7.625 3.414-7.625 7.625v22.391c0 4.214 3.45 7.634 7.664 7.625 5.497-.012 10.393-2.56 13.597-6.53 3.68 4.301 8.208 7.645 13.277 9.682v8.873c-22.645 2.118-40.37 21.169-40.37 44.367v45.887h-22.829v-15.273c0-23.198-17.725-42.249-40.37-44.367v-9.268c5.328-2.007 10.084-5.447 13.917-9.927 3.205 3.968 8.1 6.514 13.595 6.525 4.214.009 7.663-3.411 7.663-7.625v-22.391c0-4.211-3.414-7.625-7.625-7.625h-.39v-19.708c0-12.181-9.874-22.055-22.055-22.055h-9.526c-3.273 0-5.97 2.445-6.378 5.607-.019 0-.037-.001-.056-.001-.021 0-.042.002-.063.002-.408-3.162-3.105-5.607-6.379-5.607h-9.526c-12.181 0-22.055 9.874-22.055 22.055v19.709h-.39c-4.211 0-7.625 3.414-7.625 7.625v22.391c0 4.214 3.45 7.634 7.664 7.625 5.497-.012 10.393-2.56 13.597-6.53 3.523 4.118 7.823 7.362 12.633 9.419v9.781c-18.221 1.704-33.253 14.372-38.432 31.344-.643-.028-1.288-.049-1.938-.049-24.207 0-43.83 19.624-43.83 43.83 0 20.89 14.619 38.355 34.182 42.752v134.639c0 5.523 4.477 10 10 10h354.88c5.523 0 10-4.477 10-10v-160.922h5.522c6.119 0 11.079-4.96 11.079-11.079v-9.797c0-6.119-4.96-11.079-11.079-11.079h-14.526v-15.918c0-23.198-17.725-42.249-40.37-44.367v-8.873c5.068-2.037 9.595-5.379 13.273-9.677 3.212 3.977 8.122 6.525 13.633 6.525 4.211 0 7.625-3.414 7.625-7.625v-22.391c0-.008-.001-.016-.001-.024.805.044 1.614.07 2.429.07 25.319 0 45.622-21.461 43.71-47.182z" fill="#00c" opacity=".1"/><g><g><circle cx="430.381" cy="99.618" fill="#ff4d4d" r="43.83"/><path d="m446.994 93.811c0-9.16-7.453-16.613-16.613-16.613s-16.613 7.453-16.613 16.613c0 4.518 1.818 8.615 4.755 11.613-2.937 2.998-4.755 7.095-4.755 11.613 0 2.762 2.238 5 5 5s5-2.238 5-5c0-3.646 2.967-6.613 6.613-6.613s6.613 2.967 6.613 6.613c0 2.762 2.238 5 5 5s5-2.238 5-5c0-4.518-1.818-8.615-4.755-11.613 2.937-2.997 4.755-7.095 4.755-11.613zm-16.613-6.613c3.646 0 6.613 2.967 6.613 6.613s-2.967 6.613-6.613 6.613-6.613-2.967-6.613-6.613 2.967-6.613 6.613-6.613z" fill="#fff"/></g><g><g><g><g><g><path d="m433.792 251.338v-21.528c0-24.615-19.955-44.57-44.57-44.57h-14.599c-24.615 0-44.569 19.954-44.569 44.57v21.528z" fill="#4d4dff"/><path d="m395.202 251.338v-65.691c-1.956-.264-3.954-.402-5.984-.402h-14.599c-2.03 0-4.028.137-5.983.402v65.691z" fill="#ebebff"/><g fill="#ffab66"><path d="m370.422 251.338v-65.892c-4.747.433-9.271 1.628-13.458 3.436v62.456z"/><path d="m406.883 251.338v-62.456c-4.197-1.808-8.711-2.992-13.458-3.436v65.892z"/></g></g><g fill="#ffc599"><path d="m393.422 169.672v16.925c0 6.351-5.149 11.499-11.499 11.499-6.351 0-11.499-5.149-11.499-11.499v-16.925z"/><ellipse cx="381.923" cy="139.215" rx="34.654" ry="39.597"/></g></g><g fill="#ebebff"><path d="m419.938 135.777v-19.71c0-12.181-9.874-22.055-22.055-22.055h-9.526c-3.556 0-6.438 2.882-6.438 6.438v12.425s6.556-4.04 13.362-.965c4.661 2.106 7.524 6.901 7.524 12.016v31.97c0 9.678 7.845 17.523 17.523 17.523 4.211 0 7.625-3.414 7.625-7.625v-22.391c0-4.211-3.414-7.625-7.625-7.625h-.39z"/><path d="m343.899 135.777v-19.71c0-12.181 9.874-22.055 22.055-22.055h9.526c3.556 0 6.438 2.882 6.438 6.438v12.425s-6.556-4.04-13.362-.965c-4.661 2.106-7.524 6.901-7.524 12.016v31.97c0 9.678-7.845 17.523-17.523 17.523-4.211 0-7.625-3.414-7.625-7.625v-22.391c0-4.211 3.414-7.625 7.625-7.625h.39z"/></g></g><g><g><g><path d="m181.946 251.338v-21.528c0-24.615-19.955-44.57-44.57-44.57h-14.599c-24.615 0-44.569 19.954-44.569 44.57v21.528z" fill="#4d4dff"/><path d="m143.357 251.338v-65.691c-1.956-.264-3.954-.402-5.984-.402h-14.599c-2.03 0-4.028.137-5.983.402v65.691z" fill="#ebebff"/><g fill="#ffab66"><path d="m118.577 251.338v-65.892c-4.747.433-9.271 1.628-13.458 3.436v62.456z"/><path d="m155.038 251.338v-62.456c-4.197-1.808-8.711-2.992-13.458-3.436v65.892z"/></g></g><g fill="#ffc599"><path d="m141.577 169.672v16.925c0 6.351-5.149 11.499-11.499 11.499-6.351 0-11.499-5.149-11.499-11.499v-16.925z"/><ellipse cx="130.077" cy="139.215" rx="34.654" ry="39.597"/></g></g><g fill="#ebebff"><path d="m168.093 135.777v-19.71c0-12.181-9.874-22.055-22.055-22.055h-9.526c-3.556 0-6.438 2.882-6.438 6.438v12.425s6.556-4.04 13.362-.965c4.661 2.106 7.524 6.901 7.524 12.016v31.97c0 9.678 7.845 17.523 17.523 17.523 4.211 0 7.625-3.414 7.625-7.625v-22.391c0-4.211-3.414-7.625-7.625-7.625h-.39z"/><path d="m92.054 135.777v-19.71c0-12.181 9.874-22.055 22.055-22.055h9.526c3.556 0 6.438 2.882 6.438 6.438v12.425s-6.556-4.04-13.362-.965c-4.661 2.106-7.524 6.901-7.524 12.016v31.97c0 9.678-7.845 17.523-17.523 17.523-4.211 0-7.625-3.414-7.625-7.625v-22.391c0-4.211 3.414-7.625 7.625-7.625h.39z"/></g></g></g><g><g><g><path d="m307.869 251.338v-51.498c0-24.615-19.954-44.57-44.569-44.57h-14.599c-24.615 0-44.57 19.954-44.57 44.57v51.497h103.738z" fill="#4d4dff"/><path d="m269.28 251.338v-95.66c-1.956-.264-3.954-.402-5.984-.402h-14.599c-2.03 0-4.028.138-5.983.402v95.66z" fill="#ebebff"/><g fill="#ffab66"><path d="m244.5 251.338v-95.861c-4.747.433-9.271 1.628-13.458 3.436v92.425z"/><path d="m280.961 251.338v-92.425c-4.197-1.808-8.711-2.992-13.458-3.436v95.861z"/></g></g><g fill="#ffc599"><path d="m267.499 139.703v16.925c0 6.351-5.149 11.499-11.499 11.499-6.351 0-11.499-5.149-11.499-11.499v-16.925z"/><ellipse cx="256" cy="109.246" rx="34.654" ry="39.597"/></g></g><g fill="#ebebff"><path d="m294.016 105.808v-19.71c0-12.181-9.874-22.055-22.055-22.055h-9.526c-3.556 0-6.438 2.882-6.438 6.438v12.425s6.556-4.04 13.362-.965c4.661 2.106 7.524 6.901 7.524 12.016v31.97c0 9.678 7.845 17.523 17.523 17.523 4.211 0 7.625-3.414 7.625-7.625v-22.391c0-4.211-3.414-7.625-7.625-7.625h-.39z"/><path d="m217.977 105.808v-19.71c0-12.181 9.874-22.055 22.055-22.055h9.526c3.556 0 6.438 2.882 6.438 6.438v12.425s-6.556-4.04-13.362-.965c-4.661 2.106-7.524 6.901-7.524 12.016v31.97c0 9.678-7.845 17.523-17.523 17.523-4.211 0-7.625-3.414-7.625-7.625v-22.391c0-4.211 3.414-7.625 7.625-7.625h.39z"/></g></g><g><g><path d="m67.916 261.684h374.88v186.92h-374.88z" fill="#ff4d4d"/><path d="m442.796 261.684h-374.88v59.62c3.1.7 6.33 1.07 9.65 1.07 17.182 0 32.044-9.888 39.229-24.281h326.001z" fill="#ff2c2c"/></g><path d="m448.962 277.039h-385.924c-6.119 0-11.079-4.96-11.079-11.079v-9.797c0-6.119 4.96-11.079 11.079-11.079h385.924c6.119 0 11.079 4.96 11.079 11.079v9.797c0 6.119-4.96 11.079-11.079 11.079z" fill="#ffab66"/></g><g><g><path d="m181.163 332.388v69.55c0 5.839-4.733 10.572-10.572 10.572h-69.54c-5.839 0-10.572-4.733-10.572-10.572v-69.55c0-5.839 4.733-10.572 10.572-10.572h69.54c5.839.001 10.572 4.734 10.572 10.572z" fill="#ff9d33"/><path d="m168.91 334.08v78.43h-67.859c-5.839 0-10.572-4.733-10.572-10.572v-67.858z" fill="#ffab66"/></g><g><path d="m421.52 332.388v69.55c0 5.839-4.733 10.572-10.572 10.572h-69.54c-5.839 0-10.572-4.733-10.572-10.572v-69.55c0-5.839 4.733-10.572 10.572-10.572h69.54c5.839.001 10.572 4.734 10.572 10.572z" fill="#ff9d33"/><path d="m409.268 334.08v78.43h-67.859c-5.839 0-10.572-4.733-10.572-10.572v-67.858z" fill="#ffab66"/></g></g><g><path d="m237.733 383.933c0-3.429-1.775-6.447-4.451-8.197l-9.249-34.66c-.617-2.314-2.713-3.923-5.107-3.923s-4.49 1.609-5.107 3.923l-9.249 34.66c-2.676 1.75-4.451 4.768-4.451 8.197 0 8.734 7.106 15.84 15.84 15.84h5.934c8.734 0 15.84-7.106 15.84-15.84zm-15.818-9.792h-5.977l2.988-11.199zm-.022 15.06h-5.934c-2.64 0-4.833-1.952-5.21-4.489h16.355c-.378 2.537-2.571 4.489-5.211 4.489z" fill="#ff9494"/><path d="m307.43 375.736-9.249-34.66c-.617-2.314-2.713-3.923-5.107-3.923s-4.49 1.609-5.107 3.923l-9.249 34.66c-2.676 1.75-4.451 4.768-4.451 8.197 0 8.734 7.106 15.84 15.84 15.84h5.934c8.734 0 15.84-7.106 15.84-15.84 0-3.429-1.776-6.447-4.451-8.197zm-11.368-1.595h-5.976l2.988-11.199zm-.021 15.06h-5.934c-2.64 0-4.833-1.952-5.21-4.489h16.355c-.379 2.537-2.571 4.489-5.211 4.489z" fill="#ff9494"/><path d="m281.297 406.157h-20.012v-76.175h41.383c2.92 0 5.286-2.366 5.286-5.286s-2.366-5.286-5.286-5.286h-41.383v-4.503c0-2.92-2.366-5.286-5.286-5.286s-5.286 2.366-5.286 5.286v4.503h-41.383c-2.92 0-5.286 2.366-5.286 5.286s2.366 5.286 5.286 5.286h41.383v76.175h-20.012c-2.92 0-5.286 2.366-5.286 5.286s2.366 5.286 5.286 5.286h50.595c2.92 0 5.286-2.366 5.286-5.286s-2.365-5.286-5.285-5.286z" fill="#ff6c6c"/></g></g><g><g><g><circle cx="78.208" cy="260.569" fill="#ff9d33" r="43.83"/><path d="m448.962 240.083h-10.17v-10.273c0-23.861-17.179-44.351-40.37-48.71v-1.223c0-.027-.007-.051-.008-.077 2.997-1.541 5.822-3.51 8.421-5.881 3.763 2.824 8.436 4.5 13.493 4.5 6.962 0 12.625-5.663 12.625-12.625v-17.414c25.735-1.342 46.259-22.7 46.259-48.762 0-26.925-21.905-48.83-48.831-48.83-23.612 0-43.753 16.779-48.015 39.938-.149.092-.302.179-.447.278-1.835-1.255-4.052-1.991-6.438-1.991h-9.526c-14.918 0-27.055 12.137-27.055 27.055v15.581c-4.688 1.846-8.015 6.419-8.015 11.754v22.391c0 6.962 5.663 12.625 12.625 12.625 5.056 0 9.727-1.675 13.49-4.498 2.6 2.369 5.433 4.333 8.432 5.874 0 .028-.008.054-.008.083v1.225c-23.202 4.359-40.369 24.813-40.369 48.708v10.273h-12.185v-40.244c0-23.876-17.174-44.349-40.37-48.708v-1.225c0-.026-.007-.051-.008-.077 2.997-1.541 5.823-3.51 8.422-5.881 3.763 2.824 8.436 4.5 13.492 4.5 6.962 0 12.625-5.663 12.625-12.625v-22.392c0-5.335-3.326-9.908-8.015-11.754v-15.58c0-14.919-12.137-27.056-27.055-27.056h-9.526c-2.386 0-4.603.737-6.438 1.991-1.835-1.255-4.052-1.991-6.438-1.991h-9.527c-14.918 0-27.055 12.137-27.055 27.056v15.58c-4.688 1.846-8.015 6.419-8.015 11.754v22.392c0 6.962 5.663 12.625 12.625 12.625 5.056 0 9.728-1.675 13.49-4.498 2.601 2.37 5.433 4.333 8.432 5.874 0 .028-.008.054-.008.082v1.223c-23.19 4.359-40.37 24.85-40.37 48.71v40.243h-12.185v-10.273c0-23.862-17.18-44.351-40.37-48.71v-1.223c0-.028-.008-.054-.008-.082 2.997-1.54 5.822-3.515 8.42-5.878 3.764 2.825 8.437 4.502 13.494 4.502 6.962 0 12.625-5.663 12.625-12.625v-22.391c0-5.335-3.326-9.908-8.015-11.754v-15.581c0-14.918-12.137-27.055-27.055-27.055h-9.526c-2.386 0-4.603.737-6.438 1.991-1.835-1.255-4.052-1.991-6.438-1.991h-9.526c-14.919 0-27.056 12.137-27.056 27.055v15.581c-4.688 1.846-8.015 6.419-8.015 11.754v22.391c0 6.962 5.663 12.625 12.625 12.625 5.056 0 9.727-1.675 13.49-4.498 2.6 2.37 5.434 4.333 8.433 5.874 0 .028-.008.054-.008.082v1.223c-16.803 3.143-30.736 14.664-36.982 30.679-26.18.855-47.218 22.405-47.218 48.789 0 26.926 21.905 48.831 48.83 48.831 19.225 0 35.885-11.171 43.845-27.36h315.743v161.565h-364.88v-106.654c0-2.762-2.238-5-5-5s-5 2.238-5 5v111.654c0 2.762 2.238 5 5 5h374.88c2.762 0 5-2.238 5-5v-166.565h1.166c8.866 0 16.079-7.213 16.079-16.079v-9.798c0-8.866-7.213-16.079-16.079-16.079zm-69.666-122.951c1.403.837 3.458 1.104 5.246 0 .043-.026 4.484-2.562 8.681-.665 2.783 1.257 4.582 4.186 4.582 7.459v31.97c0 3.749.926 7.284 2.553 10.397-5.23 4.87-11.659 7.52-18.435 7.52-6.752 0-13.206-2.655-18.441-7.525 1.626-3.112 2.551-6.645 2.551-10.392v-31.97c0-3.273 1.799-6.201 4.583-7.459 4.224-1.909 8.677.664 8.68.665zm-3.873 66.076c2.13.392 4.3.604 6.5.604 2.203 0 4.372-.208 6.499-.598v3.382c0 3.584-2.915 6.499-6.499 6.499s-6.5-2.915-6.5-6.499zm47.53-17.415c0 1.447-1.178 2.625-2.625 2.625-6.905 0-12.523-5.617-12.523-12.522v-31.97c0-7.195-4.107-13.7-10.465-16.572-2.586-1.168-5.127-1.591-7.449-1.591-1.04 0-2.035.085-2.972.226v-5.537c0-.793.645-1.438 1.438-1.438h9.527c9.404 0 17.055 7.65 17.055 17.055v19.71c0 2.762 2.238 5 5 5h.39c1.447 0 2.625 1.178 2.625 2.625v22.389zm7.428-105.005c21.411 0 38.831 17.419 38.831 38.83 0 20.896-16.595 37.982-37.297 38.791-1.331-3.078-3.847-5.529-6.977-6.761v-15.581c0-14.918-12.137-27.055-27.055-27.055h-4.865c4.665-16.562 19.807-28.224 37.363-28.224zm-86.871 107.63c-1.447 0-2.625-1.178-2.625-2.625v-22.391c0-1.447 1.178-2.625 2.625-2.625h.39c2.762 0 5-2.238 5-5v-19.71c0-9.404 7.65-17.055 17.055-17.055h9.526c.793 0 1.438.646 1.438 1.438v5.537c-3.026-.455-6.677-.326-10.421 1.365-6.357 2.872-10.466 9.377-10.466 16.572v31.97c0 6.907-5.617 12.524-12.522 12.524zm-8.456 61.392c0-18.665 13.116-34.702 31.027-38.642 1.989 6.878 8.331 11.928 15.842 11.928 7.51 0 13.851-5.048 15.84-11.925 17.902 3.941 31.029 20 31.029 38.639v10.273h-93.738zm-81.798-142.71c.86.531 2.646 1.251 5.322.087.044-.025 4.495-2.602 8.722-.69 2.784 1.258 4.583 4.186 4.583 7.459v31.97c0 3.749.926 7.284 2.553 10.397-5.23 4.87-11.66 7.52-18.436 7.52-6.752 0-13.205-2.653-18.441-7.523 1.626-3.112 2.552-6.646 2.552-10.394v-31.97c0-3.273 1.799-6.201 4.581-7.459 3.844-1.734 7.867.234 8.564.603zm-3.755 66.139c2.129.392 4.299.604 6.499.604 2.203 0 4.372-.208 6.499-.598v3.383c0 3.584-2.915 6.499-6.499 6.499s-6.499-2.915-6.499-6.499zm12.934-84.196h9.526c9.404 0 17.055 7.651 17.055 17.056v19.709c0 2.762 2.238 5 5 5h.39c1.447 0 2.625 1.178 2.625 2.625v22.392c0 1.447-1.178 2.625-2.625 2.625-6.905 0-12.522-5.618-12.522-12.523v-31.97c0-7.194-4.107-13.699-10.467-16.572-2.585-1.168-5.125-1.59-7.447-1.59-1.04 0-2.036.085-2.973.225v-5.537c-.001-.795.645-1.44 1.438-1.44zm-44.848 69.406c-1.447 0-2.625-1.178-2.625-2.625v-22.392c0-1.447 1.178-2.625 2.625-2.625h.39c2.762 0 5-2.238 5-5v-19.708c0-9.404 7.65-17.056 17.055-17.056h9.527c.793 0 1.438.646 1.438 1.438v5.538c-3.028-.455-6.679-.327-10.421 1.364-6.357 2.873-10.465 9.378-10.465 16.572v31.97c-.001 6.906-5.619 12.524-12.524 12.524zm-8.456 61.391c0-18.637 13.127-34.697 31.029-38.639 1.989 6.877 8.331 11.926 15.84 11.926 7.51 0 13.852-5.049 15.841-11.927 17.906 3.941 31.028 19.99 31.028 38.64v40.243h-93.738zm-81.681-82.708c1.403.837 3.458 1.104 5.246 0 .043-.026 4.483-2.562 8.682-.665 2.783 1.258 4.582 4.186 4.582 7.459v31.97c0 3.747.925 7.281 2.551 10.392-5.237 4.864-11.703 7.525-18.434 7.525-6.75 0-13.204-2.656-18.44-7.525 1.626-3.112 2.551-6.645 2.551-10.392v-31.97c0-3.273 1.799-6.202 4.582-7.459 4.224-1.909 8.677.664 8.68.665zm-3.872 66.076c2.129.393 4.3.604 6.499.604 2.197 0 4.368-.213 6.499-.607v3.392c0 3.584-2.915 6.499-6.499 6.499s-6.499-2.915-6.499-6.499zm12.934-84.195h9.526c9.404 0 17.055 7.65 17.055 17.055v19.71c0 2.762 2.238 5 5 5h.39c1.447 0 2.625 1.178 2.625 2.625v22.391c0 1.447-1.178 2.625-2.625 2.625-6.905 0-12.522-5.617-12.522-12.522v-31.97c0-7.196-4.108-13.701-10.466-16.572-2.586-1.168-5.127-1.591-7.449-1.591-1.04 0-2.035.085-2.972.226v-5.537c-.001-.795.645-1.44 1.438-1.44zm-44.848 69.405c-1.447 0-2.625-1.178-2.625-2.625v-22.391c0-1.447 1.178-2.625 2.625-2.625h.39c2.762 0 5-2.238 5-5v-19.71c0-9.404 7.651-17.055 17.056-17.055h9.526c.793 0 1.438.646 1.438 1.438v5.537c-3.027-.455-6.677-.326-10.421 1.365-6.357 2.872-10.465 9.377-10.465 16.572v31.97c0 6.907-5.619 12.524-12.524 12.524zm-13.456 130.981c-21.411 0-38.83-17.42-38.83-38.831s17.419-38.83 38.83-38.83 38.831 17.419 38.831 38.83-17.42 38.831-38.831 38.831zm376.833-33.439c0 3.352-2.727 6.079-6.079 6.079h-323.297c.89-3.681 1.374-7.52 1.374-11.471 0-23.864-17.212-43.771-39.872-47.992 5.273-10.93 15.204-18.805 27.071-21.401 1.991 6.875 8.331 11.921 15.839 11.921 7.51 0 13.851-5.048 15.84-11.925 17.902 3.941 31.029 20 31.029 38.639v10.273h-24.213c-2.762 0-5 2.238-5 5s2.238 5 5 5h296.229c3.353 0 6.079 2.728 6.079 6.079z" fill="#00c"/></g></g><path d="m94.822 254.762c0-9.16-7.453-16.613-16.613-16.613s-16.613 7.453-16.613 16.613c0 4.518 1.818 8.615 4.755 11.613-2.937 2.998-4.755 7.095-4.755 11.613 0 2.762 2.238 5 5 5s5-2.238 5-5c0-3.646 2.967-6.613 6.613-6.613s6.613 2.967 6.613 6.613c0 2.762 2.238 5 5 5s5-2.238 5-5c0-4.518-1.818-8.615-4.755-11.613 2.936-2.998 4.755-7.095 4.755-11.613zm-16.614-6.613c3.646 0 6.613 2.967 6.613 6.613s-2.967 6.613-6.613 6.613-6.613-2.967-6.613-6.613 2.967-6.613 6.613-6.613z" fill="#fff"/></g></g><path d="m319.237 62.21c-1.031 0-2.063-.318-2.939-.955l-3.241-2.355-3.24 2.355c-1.752 1.273-4.126 1.273-5.878 0-1.753-1.272-2.486-3.529-1.816-5.59l1.237-3.811-3.241-2.355c-1.753-1.272-2.486-3.53-1.816-5.59.669-2.061 2.589-3.455 4.755-3.455h4.007l1.238-3.811c.669-2.061 2.589-3.455 4.755-3.455s4.086 1.395 4.755 3.454l1.239 3.812h4.006c2.166 0 4.086 1.395 4.755 3.455.67 2.06-.063 4.316-1.815 5.59l-3.241 2.355 1.237 3.811c.67 2.061-.063 4.317-1.816 5.59-.878.637-1.909.955-2.941.955z" fill="#ff4d4d"/><path d="m485.494 320.822c-1.031 0-2.063-.318-2.938-.955l-3.242-2.354-3.24 2.354c-1.754 1.273-4.126 1.273-5.878 0-1.753-1.272-2.486-3.529-1.816-5.59l1.237-3.811-3.241-2.355c-1.753-1.272-2.486-3.53-1.816-5.59.669-2.061 2.589-3.455 4.755-3.455h4.007l1.238-3.811c.669-2.061 2.589-3.455 4.755-3.455s4.086 1.395 4.755 3.454l1.239 3.812h4.006c2.166 0 4.086 1.395 4.755 3.455.67 2.06-.063 4.316-1.815 5.59l-3.241 2.355 1.237 3.811c.67 2.061-.063 4.316-1.816 5.59-.878.637-1.91.955-2.941.955z" fill="#4d4dff"/><path d="m365.465 74.151c-1.279 0-2.56-.488-3.535-1.465l-4.965-4.964-4.965 4.965c-1.951 1.953-5.119 1.953-7.07 0-1.953-1.952-1.953-5.118 0-7.07l8.5-8.5c1.951-1.953 5.119-1.953 7.07 0l8.5 8.5c1.953 1.952 1.953 5.118 0 7.07-.976.976-2.256 1.464-3.535 1.464z" fill="#ff9d33"/><path d="m47.612 436.731c-1.279 0-2.56-.488-3.535-1.465l-4.965-4.964-4.965 4.964c-1.951 1.953-5.119 1.953-7.07 0-1.953-1.952-1.953-5.118 0-7.07l8.5-8.5c1.951-1.953 5.119-1.953 7.07 0l8.5 8.5c1.953 1.952 1.953 5.118 0 7.07-.975.977-2.255 1.465-3.535 1.465z" fill="#ff9d33"/><path d="m70.095 198.236c-1.279 0-2.56-.488-3.535-1.465l-4.965-4.964-4.965 4.964c-1.951 1.953-5.119 1.953-7.07 0-1.953-1.952-1.953-5.118 0-7.07l8.5-8.5c1.951-1.953 5.119-1.953 7.07 0l8.5 8.5c1.953 1.952 1.953 5.118 0 7.07-.976.977-2.256 1.465-3.535 1.465z" fill="#ff4d4d"/></g></g></svg>